<svg width="390" height="844" viewBox="0 0 390 844" xmlns="http://www.w3.org/2000/svg" font-family="-apple-system, Segoe UI, Roboto, sans-serif">
  <defs>
    <linearGradient id="brand" x1="0" y1="0" x2="1" y2="1"><stop offset="0" stop-color="#6D5EF7"/><stop offset="1" stop-color="#9B8CFA"/></linearGradient>
    <linearGradient id="a1" x1="0" y1="0" x2="1" y2="1"><stop offset="0" stop-color="#34D399"/><stop offset="1" stop-color="#10B981"/></linearGradient>
    <linearGradient id="a2" x1="0" y1="0" x2="1" y2="1"><stop offset="0" stop-color="#F59E0B"/><stop offset="1" stop-color="#F97316"/></linearGradient>
    <linearGradient id="a3" x1="0" y1="0" x2="1" y2="1"><stop offset="0" stop-color="#60A5FA"/><stop offset="1" stop-color="#3B82F6"/></linearGradient>
  </defs>
  <rect width="390" height="844" rx="46" fill="#FFFFFF"/>
  <text x="28" y="40" font-size="14" font-weight="600" fill="#14141B">9:41</text>
  <text x="320" y="40" font-size="13" fill="#14141B">📶 🔋</text>

  <text x="24" y="92" font-size="22" fill="#6D5EF7">‹</text>
  <text x="195" y="92" text-anchor="middle" font-size="18" font-weight="800" fill="#14141B">New chat</text>

  <!-- search -->
  <rect x="20" y="116" width="350" height="46" rx="13" fill="#F2F2F7"/>
  <text x="40" y="144" font-size="14" fill="#9AA0AC">🔍  Search name or phone number</text>

  <text x="28" y="196" font-size="12" font-weight="700" fill="#9AA0AC">ON LUMIN</text>
  <g>
    <g transform="translate(0,210)">
      <circle cx="48" cy="30" r="24" fill="url(#a1)"/><text x="48" y="36" text-anchor="middle" font-size="16" font-weight="700" fill="#fff">AR</text>
      <text x="84" y="28" font-size="16" font-weight="700" fill="#14141B">Aarav</text>
      <text x="84" y="48" font-size="12" fill="#22C55E">🔒 secure</text>
      <text x="362" y="40" text-anchor="end" font-size="13" font-weight="700" fill="#6D5EF7">Chat</text>
    </g>
    <g transform="translate(0,280)">
      <circle cx="48" cy="30" r="24" fill="url(#a2)"/><text x="48" y="36" text-anchor="middle" font-size="16" font-weight="700" fill="#fff">PR</text>
      <text x="84" y="28" font-size="16" font-weight="700" fill="#14141B">Priya</text>
      <text x="84" y="48" font-size="12" fill="#22C55E">🔒 secure</text>
      <text x="362" y="40" text-anchor="end" font-size="13" font-weight="700" fill="#6D5EF7">Chat</text>
    </g>
    <g transform="translate(0,350)">
      <circle cx="48" cy="30" r="24" fill="url(#a3)"/><text x="48" y="36" text-anchor="middle" font-size="16" font-weight="700" fill="#fff">KI</text>
      <text x="84" y="28" font-size="16" font-weight="700" fill="#14141B">Kiran</text>
      <text x="84" y="48" font-size="12" fill="#22C55E">🔒 secure</text>
      <text x="362" y="40" text-anchor="end" font-size="13" font-weight="700" fill="#6D5EF7">Chat</text>
    </g>
  </g>

  <text x="28" y="446" font-size="12" font-weight="700" fill="#9AA0AC">INVITE</text>
  <g transform="translate(0,460)">
    <circle cx="48" cy="30" r="24" fill="#EEF0F4"/><text x="48" y="37" text-anchor="middle" font-size="18">＋</text>
    <text x="84" y="28" font-size="16" font-weight="700" fill="#14141B">Invite to Lumin</text>
    <text x="84" y="48" font-size="12" fill="#6B7280">Share a private invite link</text>
  </g>

  <rect x="150" y="828" width="90" height="5" rx="2.5" fill="#D7D7E0"/>
</svg>
